<?xml version="1.0" encoding="UTF-8" standalone="no"?>
<!DOCTYPE svg PUBLIC "-//W3C//DTD SVG 1.1//EN"
 "http://www.w3.org/Graphics/SVG/1.1/DTD/svg11.dtd">
<!-- Generated by graphviz version 2.40.1 (20161225.0304)
 -->
<!-- Title: G Pages: 1 -->
<svg width="2082pt" height="1502pt"
 viewBox="0.00 0.00 2082.10 1502.06" xmlns="http://www.w3.org/2000/svg" xmlns:xlink="http://www.w3.org/1999/xlink">
<g id="graph0" class="graph" transform="scale(1 1) rotate(0) translate(7.992 1494.0701)">
<title>G</title>
<polygon fill="#eeeeff" stroke="transparent" points="-7.992,7.992 -7.992,-1494.0701 2074.1094,-1494.0701 2074.1094,7.992 -7.992,7.992"/>
<!-- alias.js -->
<g id="node1" class="node">
<title>alias.js</title>
<ellipse fill="none" stroke="#242424" stroke-width="4" cx="1136.5419" cy="-800.8774" rx="47.0167" ry="47.0167"/>
<text text-anchor="middle" x="1136.5419" y="-798.4774" font-family="Fira Code" font-size="12.00" fill="#242424">alias.js</text>
</g>
<!-- Ⓜ f&#45;utility/f&#45;utility.js -->
<g id="node2" class="node">
<title>Ⓜ f&#45;utility/f&#45;utility.js</title>
<ellipse fill="none" stroke="#0c821d" stroke-width="4" cx="815.5419" cy="-133.5419" rx="133.5838" ry="133.5838"/>
<text text-anchor="middle" x="815.5419" y="-132.3419" font-family="Fira Code" font-size="12.00" fill="#0c821d">Ⓜ f&#45;utility/f&#45;utility.js</text>
</g>
<!-- alias.js&#45;&gt;Ⓜ f&#45;utility/f&#45;utility.js -->
<g id="edge1" class="edge">
<title>alias.js&#45;&gt;Ⓜ f&#45;utility/f&#45;utility.js</title>
<path fill="none" stroke="#242424" d="M1119.7765,-756.8293C1109.0874,-729.4198 1094.6393,-693.5697 1080.5419,-662.369 1017.6286,-523.1278 938.3296,-367.1046 882.9438,-260.8425"/>
<polygon fill="#242424" stroke="#242424" points="885.8919,-258.9264 878.163,-251.6797 879.6858,-262.1645 885.8919,-258.9264"/>
</g>
<!-- constants.js -->
<g id="node3" class="node">
<title>constants.js</title>
<ellipse fill="none" stroke="#0c821d" stroke-width="4" cx="1342.5419" cy="-1151.9277" rx="65.3059" ry="65.3059"/>
<text text-anchor="middle" x="1342.5419" y="-1149.5277" font-family="Fira Code" font-size="12.00" fill="#0c821d">constants.js</text>
</g>
<!-- data.fixture.json -->
<g id="node4" class="node">
<title>data.fixture.json</title>
<ellipse fill="none" stroke="#0c821d" stroke-width="4" cx="1419.5419" cy="-310.3961" rx="88.2923" ry="88.2923"/>
<text text-anchor="middle" x="1419.5419" y="-307.9961" font-family="Fira Code" font-size="12.00" fill="#0c821d">data.fixture.json</text>
</g>
<!-- filters.js -->
<g id="node5" class="node">
<title>filters.js</title>
<ellipse fill="none" stroke="#242424" stroke-width="4" cx="681.5419" cy="-800.8774" rx="56.412" ry="56.412"/>
<text text-anchor="middle" x="681.5419" y="-798.4774" font-family="Fira Code" font-size="12.00" fill="#242424">filters.js</text>
</g>
<!-- filters.js&#45;&gt;Ⓜ f&#45;utility/f&#45;utility.js -->
<g id="edge2" class="edge">
<title>filters.js&#45;&gt;Ⓜ f&#45;utility/f&#45;utility.js</title>
<path fill="none" stroke="#242424" d="M703.4252,-749.082C720.9299,-705.5968 744.7521,-641.441 758.5419,-583.369 782.4898,-482.5193 796.8822,-366.4075 805.2134,-277.4151"/>
<polygon fill="#242424" stroke="#242424" points="808.7177,-277.5281 806.1498,-267.2491 801.7472,-276.8859 808.7177,-277.5281"/>
</g>
<!-- Ⓜ micromatch/index.js -->
<g id="node6" class="node">
<title>Ⓜ micromatch/index.js</title>
<ellipse fill="none" stroke="#0c821d" stroke-width="4" cx="630.5419" cy="-464.7264" rx="118.7854" ry="118.7854"/>
<text text-anchor="middle" x="630.5419" y="-463.5265" font-family="Fira Code" font-size="12.00" fill="#0c821d">Ⓜ micromatch/index.js</text>
</g>
<!-- filters.js&#45;&gt;Ⓜ micromatch/index.js -->
<g id="edge3" class="edge">
<title>filters.js&#45;&gt;Ⓜ micromatch/index.js</title>
<path fill="none" stroke="#242424" d="M673.0631,-744.9916C666.7566,-703.4247 657.894,-645.0097 649.8911,-592.2604"/>
<polygon fill="#242424" stroke="#242424" points="653.3158,-591.4999 648.3553,-582.1381 646.395,-592.55 653.3158,-591.4999"/>
</g>
<!-- utils.js -->
<g id="node7" class="node">
<title>utils.js</title>
<ellipse fill="none" stroke="#242424" stroke-width="4" cx="446.5419" cy="-464.7264" rx="47.0167" ry="47.0167"/>
<text text-anchor="middle" x="446.5419" y="-462.3265" font-family="Fira Code" font-size="12.00" fill="#242424">utils.js</text>
</g>
<!-- filters.js&#45;&gt;utils.js -->
<g id="edge4" class="edge">
<title>filters.js&#45;&gt;utils.js</title>
<path fill="none" stroke="#242424" d="M661.8982,-747.9912C650.0369,-720.5517 633.0377,-687.5918 611.5419,-662.369 572.7338,-616.8324 540.733,-629.4244 502.5419,-583.369 486.8375,-564.4308 474.4159,-540.3521 465.3027,-518.8423"/>
<polygon fill="#242424" stroke="#242424" points="468.501,-517.4164 461.4744,-509.4869 462.0224,-520.0676 468.501,-517.4164"/>
</g>
<!-- utils.js&#45;&gt;Ⓜ f&#45;utility/f&#45;utility.js -->
<g id="edge31" class="edge">
<title>utils.js&#45;&gt;Ⓜ f&#45;utility/f&#45;utility.js</title>
<path fill="none" stroke="#242424" d="M461.2105,-419.7437C470.4702,-396.0524 484.1826,-367.5459 502.5419,-346.0838 553.7201,-286.2562 625.5905,-235.8586 687.557,-199.1761"/>
<polygon fill="#242424" stroke="#242424" points="689.3744,-202.1679 696.2318,-194.0915 685.8346,-196.1288 689.3744,-202.1679"/>
</g>
<!-- Ⓜ fluture/index.js -->
<g id="node21" class="node">
<title>Ⓜ fluture/index.js</title>
<ellipse fill="none" stroke="#0c821d" stroke-width="4" cx="446.5419" cy="-133.5419" rx="103.9872" ry="103.9872"/>
<text text-anchor="middle" x="446.5419" y="-132.3419" font-family="Fira Code" font-size="12.00" fill="#0c821d">Ⓜ fluture/index.js</text>
</g>
<!-- utils.js&#45;&gt;Ⓜ fluture/index.js -->
<g id="edge32" class="edge">
<title>utils.js&#45;&gt;Ⓜ fluture/index.js</title>
<path fill="none" stroke="#242424" d="M446.5419,-417.6275C446.5419,-373.4821 446.5419,-305.7423 446.5419,-247.4819"/>
<polygon fill="#242424" stroke="#242424" points="450.042,-247.4721 446.5419,-237.4722 443.042,-247.4722 450.042,-247.4721"/>
</g>
<!-- gitlog.fixture.json -->
<g id="node8" class="node">
<title>gitlog.fixture.json</title>
<ellipse fill="none" stroke="#0c821d" stroke-width="4" cx="1762.5419" cy="-208.5934" rx="97.6868" ry="97.6868"/>
<text text-anchor="middle" x="1762.5419" y="-206.1934" font-family="Fira Code" font-size="12.00" fill="#0c821d">gitlog.fixture.json</text>
</g>
<!-- grouping.js -->
<g id="node9" class="node">
<title>grouping.js</title>
<ellipse fill="none" stroke="#242424" stroke-width="4" cx="465.5419" cy="-1425.2738" rx="60.6091" ry="60.6091"/>
<text text-anchor="middle" x="465.5419" y="-1422.8738" font-family="Fira Code" font-size="12.00" fill="#242424">grouping.js</text>
</g>
<!-- grouping.js&#45;&gt;alias.js -->
<g id="edge9" class="edge">
<title>grouping.js&#45;&gt;alias.js</title>
<path fill="none" stroke="#242424" d="M525.2468,-1412.5967C595.5573,-1394.9411 712.1661,-1356.7691 786.5419,-1285.4696 881.8432,-1194.1101 823.0007,-1111.5465 916.5419,-1018.3857 973.8667,-961.2941 1025.2137,-998.4143 1080.5419,-939.3857 1101.948,-916.5481 1115.6167,-884.4623 1124.0859,-856.9226"/>
<polygon fill="#242424" stroke="#242424" points="1127.5377,-857.5876 1126.9756,-847.0077 1120.8173,-855.6289 1127.5377,-857.5876"/>
</g>
<!-- grouping.js&#45;&gt;Ⓜ f&#45;utility/f&#45;utility.js -->
<g id="edge5" class="edge">
<title>grouping.js&#45;&gt;Ⓜ f&#45;utility/f&#45;utility.js</title>
<path fill="none" stroke="#242424" d="M419.0513,-1385.6267C392.6094,-1360.0317 361.8063,-1324.334 346.5419,-1285.4696 270.1437,-1090.9536 262.5819,-511.3091 390.5419,-346.0838 441.3095,-280.5314 485.2129,-303.8217 559.5419,-267.0838 601.8272,-246.1839 647.6136,-222.6063 688.6145,-201.143"/>
<polygon fill="#242424" stroke="#242424" points="690.3272,-204.197 697.5593,-196.4544 687.0773,-197.9971 690.3272,-204.197"/>
</g>
<!-- grouping.js&#45;&gt;utils.js -->
<g id="edge11" class="edge">
<title>grouping.js&#45;&gt;utils.js</title>
<path fill="none" stroke="#242424" d="M443.0443,-1368.7488C395.4641,-1241.4951 293.6614,-923.26 352.5419,-662.369 364.7002,-608.4976 393.3539,-552.0874 415.8527,-513.387"/>
<polygon fill="#242424" stroke="#242424" points="419.0691,-514.823 421.1334,-504.4313 413.0392,-511.2675 419.0691,-514.823"/>
</g>
<!-- Ⓜ lodash/fp.js -->
<g id="node10" class="node">
<title>Ⓜ lodash/fp.js</title>
<ellipse fill="none" stroke="#0c821d" stroke-width="4" cx="1009.5419" cy="-1151.9277" rx="83.7553" ry="83.7553"/>
<text text-anchor="middle" x="1009.5419" y="-1150.7277" font-family="Fira Code" font-size="12.00" fill="#0c821d">Ⓜ lodash/fp.js</text>
</g>
<!-- grouping.js&#45;&gt;Ⓜ lodash/fp.js -->
<g id="edge6" class="edge">
<title>grouping.js&#45;&gt;Ⓜ lodash/fp.js</title>
<path fill="none" stroke="#242424" d="M524.4874,-1410.1625C601.5173,-1388.9743 739.1192,-1346.1156 845.5419,-1285.4696 879.0757,-1266.36 912.7216,-1240.4281 940.7337,-1216.4984"/>
<polygon fill="#242424" stroke="#242424" points="943.1989,-1218.9941 948.4804,-1209.8095 938.624,-1213.6959 943.1989,-1218.9941"/>
</g>
<!-- Ⓜ lodash/lodash.js -->
<g id="node11" class="node">
<title>Ⓜ lodash/lodash.js</title>
<ellipse fill="none" stroke="#0c821d" stroke-width="4" cx="465.5419" cy="-800.8774" rx="103.9872" ry="103.9872"/>
<text text-anchor="middle" x="465.5419" y="-799.6774" font-family="Fira Code" font-size="12.00" fill="#0c821d">Ⓜ lodash/lodash.js</text>
</g>
<!-- grouping.js&#45;&gt;Ⓜ lodash/lodash.js -->
<g id="edge7" class="edge">
<title>grouping.js&#45;&gt;Ⓜ lodash/lodash.js</title>
<path fill="none" stroke="#242424" d="M465.5419,-1364.2672C465.5419,-1260.2647 465.5419,-1047.0841 465.5419,-914.8393"/>
<polygon fill="#242424" stroke="#242424" points="469.042,-914.6716 465.5419,-904.6717 462.042,-914.6717 469.042,-914.6716"/>
</g>
<!-- Ⓜ merge&#45;options/index.js -->
<g id="node12" class="node">
<title>Ⓜ merge&#45;options/index.js</title>
<ellipse fill="none" stroke="#0c821d" stroke-width="4" cx="133.5419" cy="-1151.9277" rx="133.5838" ry="133.5838"/>
<text text-anchor="middle" x="133.5419" y="-1150.7277" font-family="Fira Code" font-size="12.00" fill="#0c821d">Ⓜ merge&#45;options/index.js</text>
</g>
<!-- grouping.js&#45;&gt;Ⓜ merge&#45;options/index.js -->
<g id="edge8" class="edge">
<title>grouping.js&#45;&gt;Ⓜ merge&#45;options/index.js</title>
<path fill="none" stroke="#242424" d="M416.2465,-1389.5754C378.6856,-1361.9564 326.0275,-1322.3289 281.5419,-1285.4696 267.826,-1274.105 253.6429,-1261.9122 239.735,-1249.6836"/>
<polygon fill="#242424" stroke="#242424" points="241.8543,-1246.8859 232.0413,-1242.8913 237.2215,-1252.1335 241.8543,-1246.8859"/>
</g>
<!-- per&#45;commit.js -->
<g id="node13" class="node">
<title>per&#45;commit.js</title>
<ellipse fill="none" stroke="#242424" stroke-width="4" cx="707.5419" cy="-1151.9277" rx="70.0031" ry="70.0031"/>
<text text-anchor="middle" x="707.5419" y="-1149.5277" font-family="Fira Code" font-size="12.00" fill="#242424">per&#45;commit.js</text>
</g>
<!-- grouping.js&#45;&gt;per&#45;commit.js -->
<g id="edge10" class="edge">
<title>grouping.js&#45;&gt;per&#45;commit.js</title>
<path fill="none" stroke="#242424" d="M506.0473,-1379.5218C546.7461,-1333.5513 609.6806,-1262.4649 654.3745,-1211.9818"/>
<polygon fill="#242424" stroke="#242424" points="657.0997,-1214.1837 661.1079,-1204.3763 651.8585,-1209.5436 657.0997,-1214.1837"/>
</g>
<!-- per&#45;commit.js&#45;&gt;alias.js -->
<g id="edge21" class="edge">
<title>per&#45;commit.js&#45;&gt;alias.js</title>
<path fill="none" stroke="#242424" d="M744.7141,-1092.4255C763.6584,-1066.4023 788.7775,-1037.5114 817.5419,-1018.3857 919.1747,-950.8092 990.3467,-1021.6088 1080.5419,-939.3857 1104.0327,-917.9713 1117.8661,-885.318 1125.9051,-857.0939"/>
<polygon fill="#242424" stroke="#242424" points="1129.3163,-857.8854 1128.5132,-847.321 1122.553,-856.0804 1129.3163,-857.8854"/>
</g>
<!-- per&#45;commit.js&#45;&gt;Ⓜ f&#45;utility/f&#45;utility.js -->
<g id="edge19" class="edge">
<title>per&#45;commit.js&#45;&gt;Ⓜ f&#45;utility/f&#45;utility.js</title>
<path fill="none" stroke="#242424" d="M721.162,-1083.1736C729.1396,-1041.6378 739.0801,-987.5819 746.5419,-939.3857 770.9436,-781.7749 777.2839,-742.2191 791.5419,-583.369 800.7143,-481.1783 806.7886,-365.5894 810.5312,-277.1732"/>
<polygon fill="#242424" stroke="#242424" points="814.0326,-277.2116 810.9536,-267.0741 807.0387,-276.919 814.0326,-277.2116"/>
</g>
<!-- per&#45;commit.js&#45;&gt;filters.js -->
<g id="edge22" class="edge">
<title>per&#45;commit.js&#45;&gt;filters.js</title>
<path fill="none" stroke="#242424" d="M702.3429,-1081.7311C697.72,-1019.3128 691.0085,-928.6951 686.4697,-867.4122"/>
<polygon fill="#242424" stroke="#242424" points="689.9338,-866.7961 685.7046,-857.0819 682.9529,-867.3132 689.9338,-866.7961"/>
</g>
<!-- per&#45;commit.js&#45;&gt;utils.js -->
<g id="edge23" class="edge">
<title>per&#45;commit.js&#45;&gt;utils.js</title>
<path fill="none" stroke="#242424" d="M675.4727,-1089.3633C655.5328,-1047.855 631.0181,-991.6046 616.5419,-939.3857 583.3432,-819.6308 632.7283,-774.2048 578.5419,-662.369 557.298,-618.5236 530.1934,-623.483 502.5419,-583.369 488.6914,-563.2761 476.6251,-539.2196 467.2758,-518.0371"/>
<polygon fill="#242424" stroke="#242424" points="470.484,-516.6376 463.3067,-508.8441 464.0574,-519.4124 470.484,-516.6376"/>
</g>
<!-- per&#45;commit.js&#45;&gt;Ⓜ lodash/lodash.js -->
<g id="edge20" class="edge">
<title>per&#45;commit.js&#45;&gt;Ⓜ lodash/lodash.js</title>
<path fill="none" stroke="#242424" d="M667.5805,-1093.9588C630.3216,-1039.9102 574.0898,-958.3392 530.4024,-894.9653"/>
<polygon fill="#242424" stroke="#242424" points="533.154,-892.7902 524.5967,-886.5434 527.3907,-896.7632 533.154,-892.7902"/>
</g>
<!-- Ⓜ dayjs/dist/dayjs.min.js -->
<g id="node19" class="node">
<title>Ⓜ dayjs/dist/dayjs.min.js</title>
<ellipse fill="none" stroke="#0c821d" stroke-width="4" cx="932.5419" cy="-800.8774" rx="138.5167" ry="138.5167"/>
<text text-anchor="middle" x="932.5419" y="-799.6774" font-family="Fira Code" font-size="12.00" fill="#0c821d">Ⓜ dayjs/dist/dayjs.min.js</text>
</g>
<!-- per&#45;commit.js&#45;&gt;Ⓜ dayjs/dist/dayjs.min.js -->
<g id="edge18" class="edge">
<title>per&#45;commit.js&#45;&gt;Ⓜ dayjs/dist/dayjs.min.js</title>
<path fill="none" stroke="#242424" d="M745.4557,-1092.7737C774.5819,-1047.3304 815.8477,-982.9465 852.2157,-926.2042"/>
<polygon fill="#242424" stroke="#242424" points="855.3261,-927.8374 857.7756,-917.5296 849.4327,-924.0601 855.3261,-927.8374"/>
</g>
<!-- index.js -->
<g id="node14" class="node">
<title>index.js</title>
<ellipse fill="none" stroke="#242424" stroke-width="4" cx="1706.5419" cy="-1425.2738" rx="47.0167" ry="47.0167"/>
<text text-anchor="middle" x="1706.5419" y="-1422.8738" font-family="Fira Code" font-size="12.00" fill="#242424">index.js</text>
</g>
<!-- index.js&#45;&gt;constants.js -->
<g id="edge14" class="edge">
<title>index.js&#45;&gt;constants.js</title>
<path fill="none" stroke="#242424" d="M1666.6338,-1400.0307C1647.8217,-1388.5709 1624.8704,-1375.21 1603.5419,-1364.4696 1522.9591,-1323.8905 1483.6384,-1345.788 1416.5419,-1285.4696 1397.3981,-1268.2596 1382.1292,-1244.8879 1370.5504,-1222.5065"/>
<polygon fill="#242424" stroke="#242424" points="1373.5693,-1220.7174 1365.9742,-1213.3306 1367.3051,-1223.8415 1373.5693,-1220.7174"/>
</g>
<!-- Ⓜ chalk/index.js -->
<g id="node15" class="node">
<title>Ⓜ chalk/index.js</title>
<ellipse fill="none" stroke="#0c821d" stroke-width="4" cx="1519.5419" cy="-1151.9277" rx="93.6213" ry="93.6213"/>
<text text-anchor="middle" x="1519.5419" y="-1150.7277" font-family="Fira Code" font-size="12.00" fill="#0c821d">Ⓜ chalk/index.js</text>
</g>
<!-- index.js&#45;&gt;Ⓜ chalk/index.js -->
<g id="edge12" class="edge">
<title>index.js&#45;&gt;Ⓜ chalk/index.js</title>
<path fill="none" stroke="#242424" d="M1679.948,-1386.4003C1653.6396,-1347.9441 1612.4904,-1287.7946 1578.4573,-1238.0469"/>
<polygon fill="#242424" stroke="#242424" points="1581.1615,-1235.8009 1572.6265,-1229.5237 1575.3841,-1239.7534 1581.1615,-1235.8009"/>
</g>
<!-- Ⓜ yargs&#45;parser/index.js -->
<g id="node16" class="node">
<title>Ⓜ yargs&#45;parser/index.js</title>
<ellipse fill="none" stroke="#0c821d" stroke-width="4" cx="1937.5419" cy="-1151.9277" rx="128.651" ry="128.651"/>
<text text-anchor="middle" x="1937.5419" y="-1150.7277" font-family="Fira Code" font-size="12.00" fill="#0c821d">Ⓜ yargs&#45;parser/index.js</text>
</g>
<!-- index.js&#45;&gt;Ⓜ yargs&#45;parser/index.js -->
<g id="edge13" class="edge">
<title>index.js&#45;&gt;Ⓜ yargs&#45;parser/index.js</title>
<path fill="none" stroke="#242424" d="M1736.9787,-1389.2575C1765.2373,-1355.8185 1808.7401,-1304.341 1848.0165,-1257.8645"/>
<polygon fill="#242424" stroke="#242424" points="1850.752,-1260.05 1854.5335,-1250.153 1845.4055,-1255.5317 1850.752,-1260.05"/>
</g>
<!-- gitparty.js -->
<g id="node17" class="node">
<title>gitparty.js</title>
<ellipse fill="none" stroke="#0c821d" stroke-width="4" cx="1730.5419" cy="-1151.9277" rx="60.6091" ry="60.6091"/>
<text text-anchor="middle" x="1730.5419" y="-1149.5277" font-family="Fira Code" font-size="12.00" fill="#0c821d">gitparty.js</text>
</g>
<!-- index.js&#45;&gt;gitparty.js -->
<g id="edge15" class="edge">
<title>index.js&#45;&gt;gitparty.js</title>
<path fill="none" stroke="#242424" d="M1710.6677,-1378.2839C1714.4213,-1335.5317 1720.0154,-1271.8181 1724.3132,-1222.8692"/>
<polygon fill="#242424" stroke="#242424" points="1727.8213,-1222.9288 1725.2095,-1212.661 1720.8482,-1222.3165 1727.8213,-1222.9288"/>
</g>
<!-- legend.js -->
<g id="node18" class="node">
<title>legend.js</title>
<ellipse fill="none" stroke="#242424" stroke-width="4" cx="1542.5419" cy="-1425.2738" rx="51.7142" ry="51.7142"/>
<text text-anchor="middle" x="1542.5419" y="-1422.8738" font-family="Fira Code" font-size="12.00" fill="#242424">legend.js</text>
</g>
<!-- legend.js&#45;&gt;Ⓜ f&#45;utility/f&#45;utility.js -->
<g id="edge17" class="edge">
<title>legend.js&#45;&gt;Ⓜ f&#45;utility/f&#45;utility.js</title>
<path fill="none" stroke="#242424" d="M1573.7859,-1384.0578C1591.9246,-1357.4712 1613.0208,-1321.2783 1622.5419,-1285.4696 1653.044,-1170.7515 1659.8521,-1131.0737 1622.5419,-1018.3857 1505.499,-664.881 1390.279,-604.8917 1122.5419,-346.0838 1067.789,-293.157 998.6413,-244.0493 939.8389,-206.4006"/>
<polygon fill="#242424" stroke="#242424" points="941.557,-203.3454 931.2412,-200.9299 937.7991,-209.2512 941.557,-203.3454"/>
</g>
<!-- legend.js&#45;&gt;Ⓜ chalk/index.js -->
<g id="edge16" class="edge">
<title>legend.js&#45;&gt;Ⓜ chalk/index.js</title>
<path fill="none" stroke="#242424" d="M1538.1888,-1373.5381C1535.3914,-1340.2925 1531.6593,-1295.9379 1528.2691,-1255.6465"/>
<polygon fill="#242424" stroke="#242424" points="1531.7415,-1255.1711 1527.4153,-1245.4998 1524.7662,-1255.758 1531.7415,-1255.1711"/>
</g>
<!-- print.js -->
<g id="node20" class="node">
<title>print.js</title>
<ellipse fill="none" stroke="#242424" stroke-width="4" cx="1211.5419" cy="-1425.2738" rx="47.0167" ry="47.0167"/>
<text text-anchor="middle" x="1211.5419" y="-1422.8738" font-family="Fira Code" font-size="12.00" fill="#242424">print.js</text>
</g>
<!-- print.js&#45;&gt;alias.js -->
<g id="edge27" class="edge">
<title>print.js&#45;&gt;alias.js</title>
<path fill="none" stroke="#242424" d="M1205.9354,-1378.598C1192.4202,-1266.0805 1158.077,-980.1629 1143.3822,-857.8245"/>
<polygon fill="#242424" stroke="#242424" points="1146.8161,-857.064 1142.1484,-847.5528 1139.866,-857.8988 1146.8161,-857.064"/>
</g>
<!-- print.js&#45;&gt;Ⓜ f&#45;utility/f&#45;utility.js -->
<g id="edge25" class="edge">
<title>print.js&#45;&gt;Ⓜ f&#45;utility/f&#45;utility.js</title>
<path fill="none" stroke="#242424" d="M1222.4825,-1379.3447C1249.1993,-1258.1104 1309.4009,-921.0551 1221.5419,-662.369 1162.712,-489.1542 1021.7793,-328.2566 922.5404,-230.4864"/>
<polygon fill="#242424" stroke="#242424" points="924.7629,-227.764 915.1704,-223.2657 919.8641,-232.7642 924.7629,-227.764"/>
</g>
<!-- print.js&#45;&gt;constants.js -->
<g id="edge28" class="edge">
<title>print.js&#45;&gt;constants.js</title>
<path fill="none" stroke="#242424" d="M1231.8669,-1382.8634C1252.6709,-1339.4536 1285.3296,-1271.3075 1309.7874,-1220.2736"/>
<polygon fill="#242424" stroke="#242424" points="1313.0885,-1221.4839 1314.2541,-1210.9534 1306.776,-1218.4587 1313.0885,-1221.4839"/>
</g>
<!-- print.js&#45;&gt;utils.js -->
<g id="edge30" class="edge">
<title>print.js&#45;&gt;utils.js</title>
<path fill="none" stroke="#242424" d="M1213.8701,-1378.2628C1221.2259,-1220.2308 1240.7446,-715.0697 1192.5419,-662.369 1088.3788,-548.4859 627.9817,-673.281 502.5419,-583.369 481.6459,-568.3914 468.2899,-543.5564 459.8872,-520.4684"/>
<polygon fill="#242424" stroke="#242424" points="463.1061,-519.062 456.5817,-510.7144 456.4765,-521.3087 463.1061,-519.062"/>
</g>
<!-- print.js&#45;&gt;Ⓜ lodash/fp.js -->
<g id="edge26" class="edge">
<title>print.js&#45;&gt;Ⓜ lodash/fp.js</title>
<path fill="none" stroke="#242424" d="M1183.4547,-1387.2662C1153.0988,-1346.1886 1103.9272,-1279.6497 1065.6009,-1227.7867"/>
<polygon fill="#242424" stroke="#242424" points="1068.3055,-1225.5573 1059.5475,-1219.5951 1062.6759,-1229.7176 1068.3055,-1225.5573"/>
</g>
<!-- print.js&#45;&gt;per&#45;commit.js -->
<g id="edge29" class="edge">
<title>print.js&#45;&gt;per&#45;commit.js</title>
<path fill="none" stroke="#242424" d="M1168.192,-1406.7856C1109.9133,-1381.4694 1003.5643,-1333.6411 916.5419,-1285.4696 867.4786,-1258.3105 814.2441,-1224.2227 773.7807,-1197.2851"/>
<polygon fill="#242424" stroke="#242424" points="775.6056,-1194.2951 765.3461,-1191.6505 771.7172,-1200.1158 775.6056,-1194.2951"/>
</g>
<!-- print.js&#45;&gt;Ⓜ chalk/index.js -->
<g id="edge24" class="edge">
<title>print.js&#45;&gt;Ⓜ chalk/index.js</title>
<path fill="none" stroke="#242424" d="M1252.8243,-1402.4031C1296.3185,-1377.153 1365.46,-1333.6489 1416.5419,-1285.4696 1431.7347,-1271.14 1446.4575,-1254.4285 1459.7926,-1237.7748"/>
<polygon fill="#242424" stroke="#242424" points="1462.7827,-1239.6352 1466.2234,-1229.6146 1457.2847,-1235.3024 1462.7827,-1239.6352"/>
</g>
</g>
</svg>
